<svg xmlns="http://www.w3.org/2000/svg" viewBox="0 0 189.02 188.5"><title>2K Games logo - Brandlogos.net</title><path d="M417.49,417.75h189v188.5h-189Z" transform="translate(-417.49 -417.75)" style="fill:#ea2228"/><path d="M575.62,505.7H545.78l-27.36,19.87,6.48-19.87H477.13c2.08-2.13,5.13-3.39,10.34-4.3l21.88-3.83c8.71-1.53,21.32-5.83,24.78-16.54,5.1-15.76-11.44-19-30.19-19-14.54,0-34.24,2.6-42.25,22h24.68c3-7.32,9.54-7.89,15.79-7.89,5.36,0,9,1.31,7.91,4.55-.76,2.37-2.81,3.79-5.86,4.4l-18,3.58c-14.6,2.9-30.64,9.49-38.07,31.17h49.66L484.11,562h22.53l4.91-15.13,9.51-6.48,8.59,21.6h29.93l-16.44-34.53Z" transform="translate(-417.49 -417.75)" style="fill:#fff"/></svg>