<svg xmlns="http://www.w3.org/2000/svg" viewBox="0 0 233.9 199.41"><title>NBA 75 logo</title><polygon points="116.95 199.41 0 56.88 49.93 0 183.96 0 233.9 56.88 116.95 199.41" style="fill:#fff"/><path d="M464,460.76c.33-1.23,1.31-3.6,1.8-4.9a65.85,65.85,0,0,0-20.43-35.47l-40.54,46.09h56.31C462.31,464.19,463.29,462.15,464,460.76Z" transform="translate(-395.05 -412.3)" style="fill:#1d428a"/><path d="M469.75,448.5c4-6.13,6.78-5.72,12.75-6.29l.41-.57c7.6-.33,6.37-.9,7.44-8.25-1.14.49-1.47-2.29-1.47-2.29-.57-4.17,1.14-3.35,2-3.43.16-5.56.65-8,3.51-9.81H451A72.16,72.16,0,0,1,469.75,448.5Z" transform="translate(-395.05 -412.3)" style="fill:#1d428a"/><path d="M515.35,598.79c-4.33-2.86-1.55-8.09-1.31-17.73-2.45-2.21-.82-3.11-.9-3.92-1.63-6.62-6.86-10.62-4.17-12.83a49.28,49.28,0,0,0-2-4.9c-8.25-4.74-15.2-12.42-16.43-13.48-1.47-1.55-3.92-3.11-4.33-4.41-2-1.8-11.69-15.53-13.89-20.59l-3.92-.57c-1.14-4.82-4.17-9.07-6-13.48a71.47,71.47,0,0,1-15,17.24L512.16,603Z" transform="translate(-395.05 -412.3)" style="fill:#1d428a"/><path d="M460.43,498.35a48,48,0,0,1,1.72-8.74c.49-1.23,2.78-3.19,2.78-3.19v-2c-8.58.25-6.13-.65-7.6-3.92-1.06-2.29-.33-2.78.08-4.41a31.48,31.48,0,0,1,1.31-3.92h-54l39,47.48A63.87,63.87,0,0,0,460.43,498.35Z" transform="translate(-395.05 -412.3)" style="fill:#1d428a"/><path d="M580,520l39.31-47.89H578.2V472a28.1,28.1,0,0,0-.49-5.56h41.43l-40.78-46.42a66.21,66.21,0,0,0-14,17.41H558a71.05,71.05,0,0,1,14.38-19.53H503.83a5.87,5.87,0,0,1,2,2.21c1.88.16,4.09,4.33.65,10.54,1.55,1.06.33,2.53-.74,4.33-.33.57-.65,1.55-1.72,1.55-1.31,2.78-2.94,5.48-4.09,5.64-.33.41-.65,1.63-.08,2.21a21.67,21.67,0,0,1,5,2.86l.08.65c1.39.82,2,1.47,3.43,2.37,3.27,2,7.19,5.56,7.6,16.26h18.55a52.7,52.7,0,0,0-.74,5.64H516.41c.82,3.27,1.23,8,2,9.73,1.88,3.76,3.19,6.21,3.76,9.81,0,0,.57,5.56,1.23,6,3.76.82,2.7,1.23,3.27,1.88s2.78.74,2.78,2.78a12,12,0,0,1,1.72,3.19,12.26,12.26,0,0,1,1,5.07,12.75,12.75,0,0,1-1,4.9,13.52,13.52,0,1,1-15.77-18.14c-1.55-3.92-4.82-10.22-5.8-12.26s-3.19-15-3.6-17.49c-.08-.57-5.8,3.35-5.88,3.6-.33.33-4.33,10.71-4.49,11.2a14.59,14.59,0,0,0-.08,1.72s2,.25,3.11,3.68,4.49,15.77,4.49,15.77-.9,1-1,.9c4.25,14.3,2.78,20.43,4.66,24.68,2.37,5.88,3,5.15,5.15,10.13,1.47,3.6,3.11,17.82,3.68,18.47,2.29,2.94,3.51,5.23,3.51,6.86s-2,6.54-1.23,9.4c.41,1.72.65,5.48,1.47,6.13,0,0,.74,1.39.33,2-.08.25-.33.57-.25.82.65,2.21,2,5.23,2.29,8.17l54.67-66.61A71.25,71.25,0,0,1,558,501.38h6.37A67.31,67.31,0,0,0,580,520Zm-28.44-71.43-2.94,7.93c-3.11,8.25-2.94,16.92-2.94,34.57v4.82h-7.36v-3.35c0-20.68,1-27.95,5-37.43l2.45-5.72h-12v-6.7h17.9v5.88Zm3,37v-11h7.19v11.69c0,2.7.65,3.43,2.12,3.43,1.31,0,2-.74,2-3.43V472.12c0-2.53-.25-4.49-2.86-4.49-1.63,0-2.7,1.14-3.51,2.53l-4.9-2.45v-25H572.8v6.7H561.2v13a13.5,13.5,0,0,1,4.66-.9c6,0,7.19,5.07,7.19,10.54v13.48c0,8.09-2.94,10.79-9.15,10.79C557.52,496.39,554.58,493.69,554.58,485.6Z" transform="translate(-395.05 -412.3)" style="fill:#c8102e"/></svg>