<svg xmlns="http://www.w3.org/2000/svg" viewBox="0 0 390.5 119.3"><title>NBA Playoffs logo - Brandlogos.net</title><path d="M700.2,544.26a55.45,55.45,0,0,0,.47-7.19c0-9.35-4-16.54-9.9-28-5.56-10.64-7.93-16.67-7.93-24a47,47,0,0,1,.34-5.9l.14-1.42c.61-6.24,2.1-9.08,5.42-9.08,2.37,0,3.52,1.76,3.52,4.95a64.82,64.82,0,0,1-.47,6.51l-1.42,13.69h15L706.64,482c.34-3.52.61-6.85.61-9.56-.07-11.39-5.49-18.1-17.42-18.1-12.4,0-19.86,7.66-21.62,23.72l-.34,2.85a56.55,56.55,0,0,0-.34,5.9c0,9.56,3.05,19.25,8.74,30.23,6.51,12.4,8.74,15.73,8.74,23.25a28.35,28.35,0,0,1-.34,4.13l-.34,3.05c-.61,5.56-1.56,8.13-4.95,8.13-2.58,0-4-1.76-4-4.95a39.69,39.69,0,0,1,.34-5.22l1.56-13.69H662l-1.42,11.59A66.77,66.77,0,0,0,660,552c0,11,6.51,18,19.11,18s18.78-7.66,20.54-21.62Z" transform="translate(-316.75 -452.35)" style="fill:#1a428a"/><polygon points="344.07 64.73 345.36 52.33 333.09 52.33 336.75 17.29 350.44 17.29 351.86 2.98 322.92 2.98 310.99 116.59 326.24 116.59 331.66 64.73 344.07 64.73" style="fill:#1a428a"/><polygon points="308.69 64.73 309.97 52.33 297.7 52.33 301.37 17.29 315.06 17.29 316.48 2.98 287.54 2.98 275.61 116.59 290.86 116.59 296.28 64.73 308.69 64.73" style="fill:#1a428a"/><path d="M579,476.35l-7.46,71.71c-.61,5.56-1.76,7.46-4.74,7.46-3.52,0-4.61-1.9-4-7.66l7.46-71.71c.61-5.56,1.76-7.46,4.95-7.46s4.41,2,3.8,7.66m-3.19-22c-12.07,0-19.11,5.69-20.81,22.3L547.55,546c-1.76,16.06,4.61,23.86,18.78,23.86,12.4,0,18.78-5.69,20.54-22.3l7.46-69.34c1.69-16.06-4.54-23.86-18.5-23.86" transform="translate(-316.75 -452.35)" style="fill:#1a428a"/><polygon points="237.04 2.98 221.45 2.98 209.72 63.45 209.99 2.98 193.93 2.98 199.01 85.41 195.69 116.59 210.94 116.59 214.13 86.97 237.04 2.98" style="fill:#1a428a"/><path d="M488,513.9l-.81,18.44h-7.8l3.05-18.44c1.29-7.93,5.56-35.93,7.8-49.82-.47,13.69-1.76,41.21-2.24,49.82m-7.32-58.56-22.91,113.6h15.73l3.66-22.44h9.35l-.95,22.44h16.2l1.08-113.6Z" transform="translate(-316.75 -452.35)" style="fill:#1a428a"/><polygon points="139.16 102.28 126.55 102.28 137.06 2.98 121.81 2.98 109.88 116.59 137.74 116.59 139.16 102.28" style="fill:#1a428a"/><path d="M413.54,477.77l-3.66,35.45c-.61,5.56-1.76,8.27-7,8.27h-2.71l5.42-51.85h1.9c5.22,0,6.64,2.58,6,8.13m-4-22.44H391.92l-12,113.6h15.25l3.52-33.76h3.66c13.22,0,21-6.51,22.78-22.44l3.66-33.69c1.76-15.73-4.61-23.72-19.25-23.72" transform="translate(-316.75 -452.35)" style="fill:#1a428a"/><path d="M357,452.35H329.09a12.38,12.38,0,0,0-12.34,12.34v94.63a12.34,12.34,0,0,0,12.34,12.34H357a12.4,12.4,0,0,0,12.4-12.34V464.69A12.4,12.4,0,0,0,357,452.35" transform="translate(-316.75 -452.35)" style="fill:#fff"/><path d="M355.86,557.48c-1.49-1.36-.47-1.9-.54-2.44-1-4.13-4.27-6.64-2.58-8-.41-1.36-1.29-3.05-1.22-3.05-5.08-2.91-9.49-7.73-10.24-8.41-.88-.95-2.44-2-2.71-2.78A85,85,0,0,1,329.9,520l-2.44-.34c-1.08-4.54-4.81-8.34-4.95-12.95a26.05,26.05,0,0,1,1.08-6.17,7.67,7.67,0,0,1,1.69-2v-1.22c-5.35.14-3.8-.41-4.74-2.44-.68-1.42-.2-1.76.07-2.78.75-2.91,3.12-7.46,4.07-9.56.27-1,1.36-3.52,1.36-3.52,4-8.13,5.49-7.52,10.17-7.93l.2-.34c4.74-.2,3.93-.54,4.61-5.15-.68.27-.88-1.42-.88-1.42-.41-2.58.75-2.1,1.22-2.17.14-4.27.54-5.63,3.66-6.78H329.09a9.4,9.4,0,0,0-9.42,9.42v94.63a9.4,9.4,0,0,0,9.42,9.42H357c-3.19-1.69-1.29-4.95-1.15-11.25" transform="translate(-316.75 -452.35)" style="fill:#1a428a"/><path d="M350.1,474.24v.41c.88.47,1.29.88,2.17,1.42,2.3,1.42,5.08,4,4.74,12.74.61,1.9.95,5.69,1.49,6.91a18.36,18.36,0,0,1,2.3,6.1s.34,3.46.81,3.73c2.37.54,1.69.75,2,1.15s1.69.47,1.69,1.69a8,8,0,0,1,1.08,2V464.69a9.45,9.45,0,0,0-9.42-9.42h-9a4.85,4.85,0,0,1,2.78,2.1c1.15.07,2.58,2.71.41,6.57.95.61.2,1.56-.47,2.71-.2.34-.41,1-1.08.95-.81,1.69-1.83,3.39-2.58,3.52-.2.27-.41,1-.07,1.36a10.45,10.45,0,0,1,3.12,1.76" transform="translate(-316.75 -452.35)" style="fill:#ce0e2d"/><path d="M366.5,516.61a8.43,8.43,0,1,1-9.83-11.32c-.95-2.44-3.05-6.37-3.66-7.66s-2-9.29-2.24-10.85c-.07-.34-3.66,2.1-3.66,2.24-.2.2-2.64,6.64-2.78,7a7,7,0,0,0-.07,1.08s1.22.14,1.9,2.24,2.78,9.83,2.78,9.83-.54.61-.61.54c2.64,8.88,1.76,12.74,2.91,15.32,1.49,3.66,1.9,3.19,3.19,6.3.95,2.24,2,11.12,2.3,11.52,1.42,1.83,2.24,3.25,2.24,4.27s-1.22,4.07-.75,5.9c.27,1,.41,3.39.88,3.86,0,0,.47.88.2,1.29-.07.14-.2.34-.14.47.81,2.78,3.32,7.59-.81,10h.07a9.32,9.32,0,0,0,7.93-9.35v-42.7Z" transform="translate(-316.75 -452.35)" style="fill:#ce0e2d"/><path d="M327.6,562.84h-2V545.69h3.19l2.51,14c-.2-3.39-.47-7.39-.47-10.85v-3.19h2v17.15H329.9l-2.51-13.69c.14,3.19.2,5.69.2,8.34Zm17.56-15.25H345c-.14,2-.41,5.69-.54,6.85l-.27,3H346l-.27-3c0-1.15-.34-4.74-.54-6.85m1,11.79h-2l-.27,3.46h-2.3l2-17.15h3.25l2,17.15h-2.37Zm-9.49-11.52v5.69h.88c.81,0,1-.27,1-1.22v-3.25c0-.81-.27-1.15-1-1.15h-.88Zm0,7.52v5.29h.88c.81,0,1-.41,1-1.22v-2.91c0-.81-.27-1.15-1-1.15Zm-2.3,7.46V545.69h3.32c1.9,0,3.12,1,3.12,3.46v2.58c0,1.56-.47,2.37-1.15,2.71a2.8,2.8,0,0,1,1.15,2.51v2.51c0,2.37-1.29,3.39-3.12,3.39Z" transform="translate(-316.75 -452.35)" style="fill:#fff"/></svg>