<?xml version="1.0" standalone="no"?><!DOCTYPE svg PUBLIC "-//W3C//DTD SVG 1.1//EN" "http://www.w3.org/Graphics/SVG/1.1/DTD/svg11.dtd"><svg t="1650359690279" class="icon" viewBox="0 0 1024 1024" version="1.1" xmlns="http://www.w3.org/2000/svg" p-id="2084" xmlns:xlink="http://www.w3.org/1999/xlink" width="200" height="200"><defs><style type="text/css"></style></defs><path d="M725.333333 151.466667c-64 0-185.6-49.066667-221.866666-64-6.4-2.133333-14.933333-2.133333-21.333334 2.133333-29.866667 14.933333-119.466667 61.866667-183.466666 61.866667-46.933333 0-93.866667-12.8-123.733334-23.466667-17.066667-4.266667-32 6.4-32 23.466667v409.6C142.933333 770.133333 454.4 938.666667 512 938.666667s369.066667-168.533333 369.066667-377.6V151.466667c0-17.066667-14.933333-27.733333-32-23.466667-27.733333 10.666667-76.8 23.466667-123.733334 23.466667z m-14.933333 264.533333L501.333333 618.666667c-12.8 12.8-34.133333 12.8-46.933333 0l-138.666667-134.4c-12.8-12.8-12.8-32 0-44.8 12.8-12.8 34.133333-12.8 46.933334 0l115.2 113.066666 185.6-179.2c12.8-12.8 34.133333-12.8 46.933333 0 12.8 10.666667 12.8 32 0 42.666667z" fill="#2B5AF0" p-id="2085"></path></svg>