<?xml version="1.0" standalone="no"?><!DOCTYPE svg PUBLIC "-//W3C//DTD SVG 1.1//EN" "http://www.w3.org/Graphics/SVG/1.1/DTD/svg11.dtd"><svg t="1650442694012" class="icon" viewBox="0 0 1024 1024" version="1.1" xmlns="http://www.w3.org/2000/svg" p-id="2352" xmlns:xlink="http://www.w3.org/1999/xlink" width="200" height="200"><defs><style type="text/css"></style></defs><path d="M870.4 187.733333h-5.688889c-17.066667 5.688889-34.133333 5.688889-56.888889 5.688889-28.444444 0-62.577778-5.688889-102.4-17.066666-79.644444-28.444444-142.222222-79.644444-170.666666-108.088889-5.688889-5.688889-11.377778-11.377778-17.066667-11.377778-11.377778 0-17.066667 5.688889-22.755556 11.377778-45.511111 51.2-108.088889 85.333333-170.666666 108.088889-51.2 11.377778-85.333333 17.066667-113.777778 17.066666-17.066667 0-34.133333 0-51.2-5.688889h-5.688889c-17.066667 0-28.444444 11.377778-28.444444 28.444445V512c0 216.177778 164.977778 392.533333 381.155555 455.111111h17.066667c210.488889-62.577778 381.155556-238.933333 381.155555-455.111111V216.177778c-5.688889-17.066667-17.066667-28.444444-34.133333-28.444445zM836.266667 512c0 170.666667-130.844444 329.955556-324.266667 392.533333-193.422222-56.888889-324.266667-216.177778-324.266667-392.533333V256h22.755556c39.822222 0 79.644444-5.688889 125.155555-17.066667 68.266667-17.066667 125.155556-56.888889 176.355556-102.4 39.822222 34.133333 96.711111 73.955556 170.666667 102.4 39.822222 11.377778 79.644444 22.755556 125.155555 22.755556h28.444445V512z" fill="#333333" p-id="2353"></path><path d="M682.666667 369.777778l-182.044445 204.8-119.466666-113.777778c-11.377778-11.377778-34.133333-11.377778-45.511112 0-11.377778 11.377778-11.377778 34.133333 0 45.511111l147.911112 136.533333c5.688889 5.688889 11.377778 5.688889 22.755555 5.688889 5.688889 0 17.066667-5.688889 22.755556-11.377777l204.8-227.555556c5.688889-11.377778 5.688889-34.133333-5.688889-45.511111s-34.133333-5.688889-45.511111 5.688889z" fill="#333333" p-id="2354"></path></svg>