<svg xmlns="http://www.w3.org/2000/svg" xmlns:xlink="http://www.w3.org/1999/xlink" viewBox="0 0 333.71 105.57"><defs><linearGradient id="a" x1="2.21" y1="1017.53" x2="3.27" y2="1015.38" gradientTransform="matrix(232.28, 0, 0, -54.01, -90.15, 55420.13)" gradientUnits="userSpaceOnUse"><stop offset="0" stop-color="#5600cd"/><stop offset="0.01" stop-color="#5400ca"/><stop offset="0.13" stop-color="#3a03a8"/><stop offset="0.27" stop-color="#25058b"/><stop offset="0.41" stop-color="#140775"/><stop offset="0.57" stop-color="#090866"/><stop offset="0.75" stop-color="#02095c"/><stop offset="1" stop-color="#000a5a"/></linearGradient><linearGradient id="b" x1="3.14" y1="1016.39" x2="4.92" y2="1014.08" gradientTransform="matrix(138.43, 0, 0, -50.22, 3.71, 51475.3)" xlink:href="#a"/><linearGradient id="c" x1="4.04" y1="1018.16" x2="4.93" y2="1018.16" gradientTransform="matrix(113.18, 0, 0, -71.66, -109.74, 73448.19)" gradientUnits="userSpaceOnUse"><stop offset="0.01" stop-color="#ff0085"/><stop offset="1" stop-color="#cc1f47"/></linearGradient><linearGradient id="d" x1="3.92" y1="1017.67" x2="4.81" y2="1017.67" gradientTransform="matrix(118.05, 0, 0, -65.78, -117.05, 67473.02)" xlink:href="#c"/></defs><title>TNT Sports logo - Brandlogos.net</title><path d="M667.92,533.49l-2.94-.88c-2-.65-5.11-1.64-5.11-4.23s2.82-3.19,4.93-3.19h6.31l5.36-10H595.33a6.48,6.48,0,0,0-6.48,6.48h0v9.21c-2.94-10.36-13.21-17.2-24.2-17.2-9.64,0-18.71,5.26-22.79,13.54-1.15-8.35-7.47-12-16.24-12H488.28C479.42,515.22,473,521,473,530c0,8.56,4.75,10.44,12,12.49,2.46.7,7,1.82,7,5S489.1,552,486.4,552c-3.93,0-7.33-2.06-10.2-4.57l-4.92,9.27a27.28,27.28,0,0,0,15.54,5,19.4,19.4,0,0,0,12.55-4.16c3.52-3,4.57-7.51,4.57-11.9,0-7.15-4.75-10.26-10.9-12.08l-2.93-.88c-2-.65-5.1-1.64-5.1-4.22s2.82-3.75,4.93-3.75h17.69v35.79h11.77v-15H526c6.43,0,11.1-1.84,13.69-5.85C540.91,552.87,551,562,564.65,562c12.13,0,21.45-7.2,24.2-18.09v16.59h11.77v-17.4h.12l13,17.41H626.5l-14.23-18.55c6.42-1.14,9.91-6.54,9.91-12.79a17,17,0,0,0-.46-4h7.9v35.3h11.77v-35.3h7.16a16.51,16.51,0,0,0-.66,4.72c0,8.58,4.76,10.46,12,12.51,2.47.7,7,1.82,7,5.05s-2.88,4.47-5.58,4.47c-3.94,0-7.34-2.06-10.22-4.58l-4.94,9.28a27.33,27.33,0,0,0,15.57,5.05,19.43,19.43,0,0,0,12.57-4.17c3.52-3,4.58-7.52,4.58-11.93C678.85,538.42,674.09,535.31,667.92,533.49ZM521.36,536h-2V524.7h2c4.56,0,8.46.06,8.46,5.76,0,5.52-4.2,5.52-8.46,5.52Zm43.29,14.59c-7,0-12.79-5.7-12.79-13.51,0-6.24,5.76-11.95,12.79-11.95s12.79,5.7,12.79,11.95c0,7.81-5.77,13.51-12.79,13.51Zm37.11-15.07h-1.14V524.23h1.14c3.84,0,8.16.72,8.16,5.64s-4.32,5.64-8.17,5.64Z" transform="translate(-345.15 -459.22)" style="fill:url(#a)"/><path d="M542,460.89v22.55h-.42l-12.34-19.21c-1.5-2.48-3-3.33-6-3.33h-52v8.86h14.24v36h12.35v-36h13.83v36h11.8V478.92h.25l15.71,23.52c1.57,2.48,3,3.33,6,3.33h8.1v-36h13.88v36H579.6v-36h10.78l4.61-8.86Z" transform="translate(-345.15 -459.22)" style="fill:url(#b)"/><path d="M391.36,499.38l16.85,23.87V497h40.26a52.75,52.75,0,0,0-101.14,0h39.41A5.67,5.67,0,0,1,391.36,499.38Z" transform="translate(-345.15 -459.22)" style="fill:url(#c)"/><path d="M417.93,506v36.06h-5.61a5.94,5.94,0,0,1-4.85-2.51L383.79,506H345.5a52.75,52.75,0,1,0,104.8,0Z" transform="translate(-345.15 -459.22)" style="fill:url(#d)"/></svg>